# xmcd CD database file
#
# Track frame offsets:
#	150
#	15216
#	28565
#	42709
#	58642
#	70055
#	89431
#	101861
#	118687
#	130512
#	143658
#	156314
#	170643
#	182809
#	199066
#	212730
#
# Disc length: 3016 seconds
#
# Revision: 0
# Processed by: cddbd v1.5.1PL0 Copyright (c) Steve Scherf et al.
# Submitted via: CDex 1.50
#
DISCID=e10bc610
DTITLE=Hilly Billy Ranger and his Dancing Fiddle - Dancing With The Cowboys [CD3]
DYEAR=1999
DGENRE=Country
TTITLE0=Achy Breaky Heart
TTITLE1=Honky Tonking's What I Do Best
TTITLE2=I Want To Live Again
TTITLE3=All That Heaven Will Aflow
TTITLE4=Western Women
TTITLE5=Coward The County
TTITLE6=Rompin' Stompin'
TTITLE7=Holdin' Heaven
TTITLE8=Jambalaya
TTITLE9=Something Stupid
TTITLE10=Take Me Home Country Road
TTITLE11=Cotten Eye Joe
TTITLE12=It's A Little Too Late
TTITLE13=Rose Of Memphis
TTITLE14=A Little More Love
TTITLE15=Last Thing On My Mind
EXTD=YEAR: 1999
EXTT0=
EXTT1=
EXTT2=
EXTT3=
EXTT4=
EXTT5=
EXTT6=
EXTT7=
EXTT8=
EXTT9=
EXTT10=
EXTT11=
EXTT12=
EXTT13=
EXTT14=
EXTT15=
PLAYORDER=
